<svg width="25" height="26" viewBox="0 0 25 26" fill="none" xmlns="http://www.w3.org/2000/svg">
<path d="M16.6462 16.7829C19.389 18.8098 22.1848 20.2575 24.743 21.0735C25.2705 20.2311 24.9541 19.152 24.0837 18.6781L18.9671 16.0459C18.255 15.6774 17.3583 15.8616 16.8572 16.4934L16.6462 16.7829Z" fill="#FFD700" fill-opacity="0.9"/>
<path d="M8.99777 8.59677C9.63079 8.0966 9.84183 7.22797 9.4461 6.49095L6.80871 1.41078C6.36037 0.542155 5.27902 0.252565 4.46143 0.726457C5.25269 3.2797 6.70331 6.06985 8.70763 8.80735L8.99777 8.59677Z" fill="#FFD700" fill-opacity="0.9"/>
<path d="M0.00429134 5.22755C0.0570911 6.14892 0.188998 7.3069 0.399825 8.12308C1.34929 11.7556 3.61745 15.5196 6.8087 18.7046C10 21.8896 13.7714 24.1532 17.411 25.1008C18.2286 25.3114 19.3891 25.4167 20.3385 25.4956C21.2617 25.5483 22.1319 25.1271 22.633 24.3374L24.1099 22.0474C21.4197 21.1788 18.6241 19.6785 15.934 17.6779L15.0108 18.8623C13.191 17.862 11.7932 16.9409 10.1844 15.3352C8.47016 13.6244 7.54698 12.2028 6.6238 10.4393L7.7843 9.51793C5.80625 6.85945 4.32936 4.06926 3.45897 1.3844L1.13801 2.93736C0.37364 3.46394 -0.0482492 4.33262 0.00440453 5.22752L0.00429134 5.22755Z" fill="#FFD700" fill-opacity="0.9"/>
</svg>
