<svg width="30" height="30" viewBox="0 0 30 30" fill="none" xmlns="http://www.w3.org/2000/svg">
<path d="M27.8097 0.333747L1.16752 12.4307C1.16752 12.4307 -0.0919977 12.9301 0.00536751 13.8515C0.105552 14.7744 1.1333 15.1967 1.1333 15.1967L7.83704 17.8075C7.83704 17.8075 9.86061 25.4869 10.2587 26.948C10.6568 28.405 10.9765 28.4396 10.9765 28.4396C11.3474 28.6262 11.6846 28.3291 11.6846 28.3291L16.0158 23.7599L22.7664 29.7497C24.5922 30.6714 25.2568 28.7512 25.2568 28.7512L30 1.06387C30 -0.780152 27.8101 0.333039 27.8101 0.333039L27.8097 0.333747ZM23.0929 26.5249L15.8715 20.1182L13.6306 22.4816L14.1234 17.4535L23.7494 7.50067L10.6279 15.999L4.80756 13.7326L27.0134 3.64906L23.0929 26.5249Z" fill="white"/>
</svg>
