<svg width="30" height="30" viewBox="0 0 30 30" fill="none" xmlns="http://www.w3.org/2000/svg">
<path d="M14.1659 0.0173645C12.4766 0.193251 11.1861 0.492256 9.85457 1.01991C7.99511 1.75277 6.48173 2.73187 5.027 4.14481C2.24074 6.83586 0.709764 10.2305 0.551387 14.0882C0.445802 16.5799 1.07344 19.2886 2.2642 21.4813C2.40498 21.7392 2.5223 21.9913 2.5223 22.0382C2.5223 22.0793 1.95332 23.7854 1.26115 25.8256C0.568984 27.8718 0 29.5896 0 29.6424C0 29.7655 0.234633 30 0.363681 30C0.410607 30 2.19382 29.4489 4.32897 28.7688C6.45826 28.0946 8.24147 27.5376 8.2884 27.5376C8.33532 27.5376 8.66968 27.6783 9.03922 27.8542C10.2417 28.4288 11.7375 28.8743 13.1981 29.103C14.1483 29.2496 16.4126 29.2496 17.3628 29.103C20.5831 28.6046 23.4691 27.1624 25.7216 24.9286C27.1059 23.5567 28.2146 21.8917 28.9419 20.1211C29.3995 18.9896 29.6986 17.8756 29.9274 16.4275C30.0212 15.7884 30.0271 13.5312 29.9274 12.8218C29.4347 9.30999 27.8626 6.27303 25.3345 3.92789C23.123 1.88175 20.4424 0.603651 17.3628 0.128759C16.7704 0.0408154 14.6704 -0.0354004 14.1659 0.0173645ZM17.1106 3.17744C20.5597 3.752 23.5395 5.76883 25.3345 8.73543C26.0794 9.97249 26.6719 11.661 26.8713 13.115C26.9652 13.8068 26.9652 15.4367 26.8713 16.105C26.7188 17.2307 26.2495 18.7492 25.7509 19.74C24.6071 22.0265 22.5482 24.0199 20.2605 25.0811C18.7296 25.7846 17.3687 26.1071 15.6911 26.1716C13.3858 26.2536 11.2272 25.7025 9.27386 24.53C8.98643 24.3599 8.7166 24.2427 8.62862 24.2427C8.54649 24.2485 7.6197 24.5241 6.56971 24.8583C5.51973 25.1925 4.65746 25.4622 4.64573 25.4563C4.63986 25.4504 4.90969 24.6238 5.24991 23.6154C5.59012 22.6069 5.86582 21.7158 5.86582 21.6278C5.86582 21.534 5.70744 21.235 5.47867 20.8833C4.41109 19.2651 3.77172 17.3538 3.64267 15.3605C3.58401 14.5338 3.63094 13.414 3.75412 12.7339C4.41696 9.01098 6.73396 5.92712 10.1185 4.24448C11.3797 3.61716 12.6467 3.25952 14.3126 3.06605C14.7408 3.01328 16.5944 3.0895 17.1106 3.17744Z" fill="white"/>
<path d="M10.7051 7.80894C9.79592 7.94965 9.38532 8.11968 8.95711 8.53594C7.90713 9.53849 7.60797 11.526 8.24735 13.2204C8.85153 14.8326 10.887 17.4827 12.5763 18.8546C14.2187 20.1913 16.0958 21.0766 18.2427 21.528C18.8117 21.6511 19.8617 21.6511 20.3192 21.528C21.1932 21.2994 22.2491 20.5431 22.5893 19.8981C22.9002 19.3119 23.0409 18.0631 22.8415 17.682C22.7652 17.5354 22.5247 17.3947 21.3926 16.8436C20.6418 16.4742 19.8558 16.1107 19.6388 16.0228C18.9231 15.7414 18.7413 15.8117 18.1136 16.5974C17.357 17.5354 17.222 17.6879 17.1575 17.6879C17.1282 17.6879 16.8936 17.594 16.6413 17.4885C15.6852 17.0664 14.3419 16.0345 13.3858 14.9734C12.9752 14.5219 12.3182 13.6542 12.3182 13.5721C12.3182 13.5428 12.5001 13.3083 12.7171 13.0562C13.2744 12.4171 13.4621 12.0595 13.4503 11.6491C13.4503 11.3794 13.3506 11.098 12.8227 9.86094C12.4766 9.05187 12.1247 8.29556 12.0425 8.17244C11.7727 7.77963 11.4442 7.69169 10.7051 7.80894Z" fill="white"/>
</svg>
